<svg xmlns="http://www.w3.org/2000/svg" width="256" height="256" viewBox="0 0 256 256" role="img" aria-labelledby="title description">
  <title id="title">SyntaxStitch</title>
  <desc id="description">Coral and teal braces joined by a gold stitched thread.</desc>
  <rect width="256" height="256" rx="36" fill="#17191f"/>
  <path d="M98 43H88c-17 0-25 9-25 27v29c0 17-7 25-22 25 15 0 22 8 22 25v37c0 18 8 27 25 27h10" fill="none" stroke="#ff6b5f" stroke-width="17" stroke-linecap="round" stroke-linejoin="round"/>
  <path d="M158 43h10c17 0 25 9 25 27v29c0 17 7 25 22 25-15 0-22 8-22 25v37c0 18-8 27-25 27h-10" fill="none" stroke="#4fd1c5" stroke-width="17" stroke-linecap="round" stroke-linejoin="round"/>
  <path d="M102 80l52 18-52 18 52 18-52 18 52 18" fill="none" stroke="#ffd166" stroke-width="8" stroke-linecap="round" stroke-linejoin="round"/>
  <circle cx="102" cy="80" r="7" fill="#ffd166"/>
  <path d="M154 170l14 5-12 9z" fill="#f4f7fb"/>
</svg>